/* XPM */
static char * play_xpm[] = {
"24 24 51 1",
" 	c #000000",
".	c #061800",
"+	c #279500",
"@	c #2FB700",
"#	c #082000",
"$	c #289A00",
"%	c #42FF00",
"&	c #31BC00",
"*	c #299E00",
"=	c #2CAA00",
"-	c #2BA500",
";	c #2AA200",
">	c #051500",
",	c #051300",
"'	c #2DAF00",
")	c #269400",
"!	c #041000",
"~	c #2FB500",
"{	c #248C00",
"]	c #040E00",
"^	c #30BA00",
"/	c #228300",
"(	c #030B00",
"_	c #32C000",
":	c #207C00",
"<	c #020600",
"[	c #34C700",
"}	c #39DC00",
"|	c #0E3700",
"1	c #35CC00",
"2	c #3CE600",
"3	c #114200",
"4	c #000100",
"5	c #36D100",
"6	c #3FF500",
"7	c #0F3B00",
"8	c #38D900",
"9	c #40F700",
"0	c #185D00",
"a	c #010300",
"b	c #39DE00",
"c	c #1D7000",
"d	c #3BE400",
"e	c #020900",
"f	c #3DEB00",
"g	c #258E00",
"h	c #030D00",
"i	c #3EF100",
"j	c #2EB000",
"k	c #071A00",
"l	c #092100",
"                        ",
"                        ",
"   .                    ",
"   +@#                  ",
"   $%%&.                ",
"   *%%%%=.              ",
"   -%%%%%%;>            ",
"   =%%%%%%%%;,          ",
"   '%%%%%%%%%%)!        ",
"   ~%%%%%%%%%%%%{]      ",
"   ^%%%%%%%%%%%%%%/(    ",
"   _%%%%%%%%%%%%%%%%:<  ",
"   [%%%%%%%%%%%%%%%}|   ",
"   1%%%%%%%%%%%%%234    ",
"   5%%%%%%%%%%%67       ",
"   8%%%%%%%%%90a        ",
"   b%%%%%%%%ca          ",
"   d%%%%%%:e            ",
"   f%%%%gh              ",
"   i%%',                ",
"   9jk                  ",
"   l                    ",
"                        ",
"                        "};
