/* XPM */
static char * stop_xpm[] = {
"24 24 7 1",
" 	c #FFFFFF",
".	c #C9C9C9",
"+	c #B3B3B3",
"@	c #4D4D4D",
"#	c #000000",
"$	c #EDEDED",
"%	c #E5E5E5",
"                        ",
"                        ",
"                        ",
"                        ",
"    .+++++++++++++.     ",
"    @#############@     ",
"    @#############@     ",
"    @#############@     ",
"    @#############@     ",
"    @#############@     ",
"    @#############@     ",
"    @#############@     ",
"    @#############@     ",
"    @#############@     ",
"    @#############@     ",
"    @#############@     ",
"    @#############@     ",
"    @#############@     ",
"    @#############@     ",
"    $%%%%%%%%%%%%%$     ",
"                        ",
"                        ",
"                        ",
"                        "};
