/* XPM */
static char * zoom_to_highlight_xpm[] = {
"16 16 18 1",
" 	c None",
".	c #FF0101",
"+	c #808080",
"@	c #AAAAAA",
"#	c #494949",
"$	c #FFFFFF",
"%	c #8E8E8E",
"&	c #E3E3E3",
"*	c #555555",
"=	c #C6C6C6",
"-	c #373202",
";	c #A59505",
">	c #6E6404",
",	c #333333",
"'	c #191919",
")	c #2A2A2A",
"!	c #3A3A3A",
"~	c #252525",
"................",
".....+@@@@......",
"...#$$$$$$$%....",
"..#&$$$$$$$$+...",
"..$$$$$$$$$$$*..",
".+$$$$$$$$$$$=..",
".@$$@@@@@@@&$$..",
".@$$-;;;;;>@$$..",
".@$$*******=$$..",
".@$$$$$$$$$$$$..",
"..$$$$$$$$$$$*..",
"..%$$$$$$$$$=,..",
"...+$$$$$$$='...",
"....*=$$$$*,)!..",
".............~!.",
"..............)!"};
