/* XPM */
static char * zoom_above_small_xpm[] = {
"16 16 23 1",
" 	c None",
".	c #000000",
"+	c #808080",
"@	c #AAAAAA",
"#	c #494949",
"$	c #717171",
"%	c #E3E3E3",
"&	c #393939",
"*	c #FFFFFF",
"=	c #555555",
"-	c #545454",
";	c #C6C6C6",
">	c #8E8E8E",
",	c #1C1C1C",
"'	c #333333",
")	c #E2E2E2",
"!	c #A9A9A9",
"~	c #707070",
"{	c #191919",
"]	c #080808",
"^	c #2A2A2A",
"/	c #3A3A3A",
"(	c #252525",
"                ",
"    .+@@@@.     ",
"   #@@@@@@@$    ",
"  #%&@@@@@$$+   ",
" .**=*****@-*=  ",
" +**=*****@-*;  ",
" @**=*****@-**. ",
" @**=*****@-**. ",
" @**=*****@-**. ",
" @**=*****@-**. ",
" .**=*****@-*=  ",
"  >*,=====&-;'  ",
"   +)!!!!!!~{]  ",
"    =;****='^/. ",
"      ....   (/]",
"              ^/"};
