/* XPM */
static char * edit_parameters_xpm[] = {
"30 13 70 1",
" 	c #3F0000",
".	c #7C0000",
"+	c #470000",
"@	c #810000",
"#	c #FF0000",
"$	c #910000",
"%	c #DA0000",
"&	c #0D0000",
"*	c #AC0000",
"=	c #CE0000",
"-	c #140000",
";	c #4A0000",
">	c #CB0000",
",	c #620000",
"'	c #F20000",
")	c #120000",
"!	c #1B0000",
"~	c #D90000",
"{	c #000000",
"]	c #370000",
"^	c #7A0000",
"/	c #D20000",
"(	c #3D0000",
"_	c #0A0000",
":	c #090000",
"<	c #C80000",
"[	c #5A0000",
"}	c #7D0000",
"|	c #4D0000",
"1	c #520000",
"2	c #820000",
"3	c #730000",
"4	c #800000",
"5	c #C50000",
"6	c #030000",
"7	c #3B0000",
"8	c #A10000",
"9	c #AB0000",
"0	c #420000",
"a	c #920000",
"b	c #B50000",
"c	c #020000",
"d	c #F00000",
"e	c #530000",
"f	c #5E0000",
"g	c #DE0000",
"h	c #6E0000",
"i	c #F40000",
"j	c #F70000",
"k	c #390000",
"l	c #040000",
"m	c #AA0000",
"n	c #010000",
"o	c #4B0000",
"p	c #300000",
"q	c #6A0000",
"r	c #C30000",
"s	c #350000",
"t	c #690000",
"u	c #DD0000",
"v	c #1D0000",
"w	c #A40000",
"x	c #D10000",
"y	c #250000",
"z	c #6D0000",
"A	c #F30000",
"B	c #B40000",
"C	c #4F0000",
"D	c #9D0000",
"E	c #590000",
" ............................+",
"@############################$",
"@%&&&&&&*=&&&-;>##,&')&&&&&!#$",
"@~{]^^^^/>{(^,_:<#[{'}^|{1^2#$",
"@~{3#####>{4##567#[{'##8{9###$",
"@~{0aaab#>{4###0cd[{'##8{9###$",
"@~{{{{{e#>{4###f{g[{'##8{9###$",
"@~{hiiij#>{4###kli[{'##8{9###$",
"@~{3#####>{4##mno#[{'##8{9###$",
"@~{pqqqqr>{st|c-%#[{'##8{9###$",
"@uvvvvvvwxvvvyfu##zvA##*vB###$",
"@############################$",
"CDDDDDDDDDDDDDDDDDDDDDDDDDDDDE"};
