/* XPM */
static char * hide_icon_xpm[] = {
"16 16 31 1",
" 	c None",
".	c #727272",
"+	c #616161",
"@	c #424242",
"#	c #000000",
"$	c #7A7A7A",
"%	c #4A4A4A",
"&	c #636363",
"*	c #353535",
"=	c #707070",
"-	c #4D4D4D",
";	c #7B7B7B",
">	c #909090",
",	c #717171",
"'	c #676767",
")	c #181818",
"!	c #0E0E0E",
"~	c #565656",
"{	c #525252",
"]	c #8C8C8C",
"^	c #8F8F8F",
"/	c #2A2A2A",
"(	c #737373",
"_	c #828282",
":	c #818181",
"<	c #7C7C7C",
"[	c #767676",
"}	c #252525",
"|	c #5A5A5A",
"1	c #2E2E2E",
"2	c #787878",
"...          ...",
"....        ....",
"....+      .....",
" ....@####$.... ",
"  %...&  *=...  ",
"  #-...;>,..')  ",
" ## @.......!#  ",
"##  #.....~   ##",
"#{  # ....~  ]  ",
"#^  /=.....( _  ",
"  :<....,=..[   ",
"   ...'}#|....  ",
"  ....1## 2.... ",
" ....       ....",
"....         ...",
"...           . "};
