/* XPM */
static char * parameters_xpm[] = {
"50 18 387 2",
"  	c None",
". 	c #0A0A50",
"+ 	c #3E3E76",
"@ 	c #414178",
"# 	c #404177",
"$ 	c #262664",
"% 	c #09094F",
"& 	c #F2F4F8",
"* 	c #FCFDFF",
"= 	c #2F2F6B",
"- 	c #3F3F77",
"; 	c #FDFDFF",
"> 	c #E1E1EB",
", 	c #3F3F76",
"' 	c #48487D",
") 	c #494A7E",
"! 	c #585888",
"~ 	c #9797B5",
"{ 	c #FFFFFF",
"] 	c #FCFCFF",
"^ 	c #FCFCFE",
"/ 	c #8585A9",
"( 	c #434379",
"_ 	c #FDFEFF",
": 	c #D6D7E3",
"< 	c #00003F",
"[ 	c #000048",
"} 	c #000042",
"| 	c #000041",
"1 	c #1B1B5C",
"2 	c #F5F6F9",
"3 	c #FDFDFE",
"4 	c #9292B1",
"5 	c #FEFEFF",
"6 	c #D7D7E3",
"7 	c #00003E",
"8 	c #1C1C5D",
"9 	c #F3F3F7",
"0 	c #EEEEF4",
"a 	c #ECECF2",
"b 	c #D2D2DF",
"c 	c #222262",
"d 	c #8989AB",
"e 	c #1E1E5F",
"f 	c #C6C6D6",
"g 	c #000044",
"h 	c #1F1F5F",
"i 	c #B0B0C6",
"j 	c #8282A6",
"k 	c #D6D6E2",
"l 	c #FEFEFE",
"m 	c #FBFBFD",
"n 	c #BBBBCE",
"o 	c #D9D9E4",
"p 	c #B7B8CC",
"q 	c #8A8AAB",
"r 	c #FAFAFB",
"s 	c #B2B2C8",
"t 	c #8383A6",
"u 	c #8888AA",
"v 	c #CACADA",
"w 	c #FBFBFC",
"x 	c #C3C3D4",
"y 	c #DADAE4",
"z 	c #F3F3F6",
"A 	c #8F8FAF",
"B 	c #F9F9FB",
"C 	c #DBDBE5",
"D 	c #8484A8",
"E 	c #9B9BB8",
"F 	c #D5D5E1",
"G 	c #000043",
"H 	c #131357",
"I 	c #E2E2EA",
"J 	c #0B0B50",
"K 	c #00003D",
"L 	c #00003B",
"M 	c #6F6F98",
"N 	c #000034",
"O 	c #202060",
"P 	c #ECECF1",
"Q 	c #18185A",
"R 	c #000040",
"S 	c #6E6E98",
"T 	c #F1F1F6",
"U 	c #03034B",
"V 	c #242462",
"W 	c #9C9CB9",
"X 	c #292966",
"Y 	c #424279",
"Z 	c #F8F8FF",
"` 	c #D1D1E3",
" .	c #1D1D5F",
"..	c #FAFAFF",
"+.	c #7878A1",
"@.	c #000047",
"#.	c #5A5A8B",
"$.	c #242464",
"%.	c #000046",
"&.	c #8686AC",
"*.	c #F2F2FB",
"=.	c #BCBCD3",
"-.	c #07074E",
";.	c #F1F1FA",
">.	c #EDEDF7",
",.	c #000049",
"'.	c #31316D",
").	c #49497F",
"!.	c #B0B0CB",
"~.	c #363671",
"{.	c #000045",
"].	c #8686AB",
"^.	c #BDBDD4",
"/.	c #D7D7E7",
"(.	c #ECECF6",
"_.	c #0D0D53",
":.	c #33336E",
"<.	c #D6D6E7",
"[.	c #4E4E82",
"}.	c #646493",
"|.	c #D3D3E4",
"1.	c #1C1C5E",
"2.	c #9E9EBE",
"3.	c #8E8EB1",
"4.	c #404079",
"5.	c #F1F1FF",
"6.	c #CCCCE3",
"7.	c #05054C",
"8.	c #2D2D6B",
"9.	c #2C2C6A",
"0.	c #2B2B69",
"a.	c #1B1B5D",
"b.	c #D5D5EA",
"c.	c #E9E9F9",
"d.	c #333370",
"e.	c #31316E",
"f.	c #F5F5FF",
"g.	c #57578A",
"h.	c #E7E7F7",
"i.	c #E8E8F8",
"j.	c #F6F6FF",
"k.	c #4A4A81",
"l.	c #3F3F78",
"m.	c #676797",
"n.	c #B5B5D1",
"o.	c #E6E6F6",
"p.	c #0A0A51",
"q.	c #F2F2FF",
"r.	c #C1C1DA",
"s.	c #111156",
"t.	c #F4F4FF",
"u.	c #AFAFCD",
"v.	c #6E6E9C",
"w.	c #8B8BB1",
"x.	c #3E3E79",
"y.	c #EBEBFF",
"z.	c #C6C6E3",
"A.	c #01014A",
"B.	c #0B0B51",
"C.	c #0B0B52",
"D.	c #131358",
"E.	c #2E2E6D",
"F.	c #AEAED0",
"G.	c #ECECFF",
"H.	c #F7F7FF",
"I.	c #D4D4ED",
"J.	c #A1A1C6",
"K.	c #7777A5",
"L.	c #42427C",
"M.	c #04044C",
"N.	c #E3E3F9",
"O.	c #E0E0F7",
"P.	c #0F0F54",
"Q.	c #F3F3FF",
"R.	c #EAEAFF",
"S.	c #D7D7EF",
"T.	c #A4A4C8",
"U.	c #7979A7",
"V.	c #44447E",
"W.	c #02024B",
"X.	c #ACACCF",
"Y.	c #DFDFF6",
"Z.	c #2F2F6D",
"`.	c #C6C6E2",
" +	c #43437D",
".+	c #BBBBD9",
"++	c #676799",
"@+	c #8787B1",
"#+	c #3C3C79",
"$+	c #E2E2FF",
"%+	c #BFBFE3",
"&+	c #1A1A60",
"*+	c #E7E7FF",
"=+	c #E6E6FF",
"-+	c #8484B3",
";+	c #00004A",
">+	c #01014B",
",+	c #070750",
"'+	c #DADAF9",
")+	c #D8D8F7",
"!+	c #1E1E63",
"~+	c #E9E9FF",
"{+	c #E1E1FF",
"]+	c #7777A9",
"^+	c #0E0E56",
"/+	c #A7A7CF",
"(+	c #D7D7F6",
"_+	c #0D0D55",
":+	c #333373",
"<+	c #E8E8FF",
"[+	c #BEBEE2",
"}+	c #444481",
"|+	c #E3E3FF",
"1+	c #B4B4DA",
"2+	c #63639A",
"3+	c #8282B2",
"4+	c #383879",
"5+	c #D2D2FF",
"6+	c #B2B2E4",
"7+	c #00004B",
"8+	c #1B1B68",
"9+	c #D7D7FF",
"0+	c #B6B6E8",
"a+	c #00004C",
"b+	c #060657",
"c+	c #9999D0",
"d+	c #B4B4E7",
"e+	c #CDCDFB",
"f+	c #4B4B8F",
"g+	c #010153",
"h+	c #CBCBF9",
"i+	c #C9C9F7",
"j+	c #1F1F6A",
"k+	c #D9D9FF",
"l+	c #D1D1FE",
"m+	c #09095A",
"n+	c #111160",
"o+	c #9A9AD1",
"p+	c #B3B3E6",
"q+	c #585899",
"r+	c #00004E",
"s+	c #9B9BD1",
"t+	c #C8C8F7",
"u+	c #0F0F5E",
"v+	c #32327B",
"w+	c #D8D8FF",
"x+	c #B1B1E3",
"y+	c #404087",
"z+	c #D3D3FF",
"A+	c #A7A7DC",
"B+	c #5E5E9F",
"C+	c #7A7AB6",
"D+	c #343479",
"E+	c #C2C2FD",
"F+	c #A4A4E5",
"G+	c #000054",
"H+	c #1B1B6F",
"I+	c #C6C6FF",
"J+	c #C1C1FD",
"K+	c #8989CD",
"L+	c #000058",
"M+	c #4C4C99",
"N+	c #CBCBFF",
"O+	c #C4C4FF",
"P+	c #1D1D71",
"Q+	c #02025A",
"R+	c #BBBBF8",
"S+	c #B9B9F6",
"T+	c #000052",
"U+	c #1E1E72",
"V+	c #C8C8FF",
"W+	c #B9B9F7",
"X+	c #000057",
"Y+	c #3D3D8D",
"Z+	c #C5C5FF",
"`+	c #C1C1FE",
" @	c #0F0F65",
".@	c #8D8DD1",
"+@	c #0F0F66",
"@@	c #2F2F81",
"#@	c #C7C7FF",
"$@	c #A4A4E4",
"%@	c #000055",
"&@	c #C3C3FE",
"*@	c #9B9BDC",
"=@	c #5858A3",
"-@	c #7171B9",
";@	c #303079",
">@	c #B2B2FC",
",@	c #9797E4",
"'@	c #00005C",
")@	c #191977",
"!@	c #B5B5FF",
"~@	c #9999E7",
"{@	c #00005F",
"]@	c #020261",
"^@	c #6969BB",
"/@	c #7373C5",
"(@	c #11116E",
"_@	c #050564",
":@	c #010161",
"<@	c #A4A4EF",
"[@	c #AAAAF6",
"}@	c #00005B",
"|@	c #1D1D78",
"1@	c #B7B7FF",
"2@	c #B0B0FA",
"3@	c #0C0C6A",
"4@	c #070766",
"5@	c #6B6BBC",
"6@	c #7777C8",
"7@	c #1C1C77",
"8@	c #060665",
"9@	c #7979CA",
"0@	c #A9A9F4",
"a@	c #0F0F6D",
"b@	c #2C2C86",
"c@	c #9696E4",
"d@	c #00005D",
"e@	c #393991",
"f@	c #B3B3FC",
"g@	c #8E8EDD",
"h@	c #5151A7",
"i@	c #6868BB",
"j@	c #2C2C78",
"k@	c #A1A1F9",
"l@	c #8787E2",
"m@	c #00005A",
"n@	c #0F0F75",
"o@	c #A5A5FD",
"p@	c #A4A4FC",
"q@	c #6565C3",
"r@	c #000067",
"s@	c #000063",
"t@	c #000061",
"u@	c #1F1F83",
"v@	c #5252B2",
"w@	c #4545A5",
"x@	c #9E9EF6",
"y@	c #000059",
"z@	c #121277",
"A@	c #A6A6FE",
"B@	c #6868C6",
"C@	c #000062",
"D@	c #000060",
"E@	c #1A1A7F",
"F@	c #7171CE",
"G@	c #3C3C9E",
"H@	c #9A9AF3",
"I@	c #05056B",
"J@	c #202084",
"K@	c #8686E1",
"L@	c #2D2D8F",
"M@	c #A2A2FA",
"N@	c #7F7FDA",
"O@	c #4444A5",
"P@	c #5F5FBD",
"Q@	c #252576",
"R@	c #9191F6",
"S@	c #9191F7",
"T@	c #9898FD",
"U@	c #9696FC",
"V@	c #9090F6",
"W@	c #9292F8",
"X@	c #7474DC",
"Y@	c #8181E8",
"Z@	c #9393F8",
"`@	c #9494F9",
" #	c #9898FE",
".#	c #9797FC",
"+#	c #7575DD",
"@#	c #8080E7",
"##	c #9999FE",
"$#	c #9595FA",
"%#	c #9797FD",
"&#	c #9696FB",
"*#	c #9292F7",
"=#	c #9494FA",
"-#	c #4E4EB8",
";#	c #060661",
">#	c #7A7AEE",
",#	c #8080F3",
"'#	c #1A1A91",
")#	c #040463",
"!#	c #1D1D74",
"~#	c #1E1E75",
"{#	c #11116C",
"  . + @ @ @ @ @ @ @ @ @ @ @ @ @ @ @ @ @ @ @ @ @ @ @ @ @ @ @ @ @ @ @ @ @ @ @ @ @ @ @ @ @ @ @ @ # $   ",
"% & * * * * * * * * * * * * * * * * * * * * * * * * * * * * * * * * * * * * * * * * * * * * * * * = ",
"- ; > , ' ' ' ) ! ~ { * ] ] ] ] ] ] ] ] ] ] ] ] ] ] ] ] ] ] ] ] ] ] ] ] ] ] ] ] ] ] ] ] ] ] ] ] ^ / ",
"( _ : < [ } } } } | 1 2 3 _ _ _ _ _ _ _ _ _ _ _ _ _ _ _ _ _ _ _ _ _ _ _ _ _ _ _ _ _ _ _ _ _ _ _ _ 4 ",
"( 5 6 7 8 9 0 a b c [ d { 5 5 5 5 5 5 5 5 5 5 5 5 5 5 5 5 5 5 5 5 5 5 5 5 5 5 5 5 5 5 5 5 5 5 5 5 4 ",
"( 5 6 7 e { { { { f g h { { { i j d k { l m n o p q r l { s t u v { l w x y z d A B { C D E { l 5 4 ",
"( 5 6 7 e { 5 5 l F G H { I J K 7 < L M 3 9 N O } | 8 P Q 7 7 < R S { T U V < 7 } . W K < } X { 5 4 ",
"Y Z ` 7  .; Z Z ..+.@.#.{ $.%.&.*.=.-.. ;.>.K ,.'.).!.~.{.].;.^.@.R /.(._.@.:.<.[.[ [ }.|.1.| 2.Z 3.",
"4.5.6.< 7.8.9.0.a.%.@.b.c.d.e.; f.5 g.[ c.h.K @.i.j.5.k.l.Z f.{ m.| n.o._.p...q.r.| s...t.u.R v.5.w.",
"x.y.z.< A.B.p.C.D.E.F.G.y.H.I.J.K.L.M.@.N.O.K P.Q.R.R...S.T.U.V.W.G X.Y._.Z.q.R.`.<  +q.G..+< ++R.@+",
"#+$+%+R &+*+$+$+$+$+$+$+=+-+;+>+>+;+,+,.'+)+< !+~+$+{+]+%.>+>+;+^+{./+(+_+:+<+$+[+} }+~+|+1+| 2+$+3+",
"4+5+6+7+8+9+5+5+5+5+5+5+0+a+b+c+d+e+f+g+h+i+,.j+k+5+l+m+n+o+p+l+q+r+s+t+u+v+w+5+x+a+y+k+z+A+a+B+5+C+",
"D+E+F+G+H+I+J+J+J+J+J+J+K+L+M+N+O+E+P+Q+R+S+T+U+V+E+W+X+Y+Z+O+`+ @L+.@S++@@@#@J+$@%@Y+V+&@*@%@=@J+-@",
";@>@,@'@)@!@>@>@>@>@>@>@~@{@]@^@/@(@_@:@<@[@}@|@1@>@2@3@4@5@6@7@8@:@9@0@a@b@1@>@c@d@e@1@f@g@d@h@>@i@",
"j@k@l@m@n@o@k@k@k@k@k@k@p@q@r@s@t@u@v@d@w@x@y@z@A@k@k@B@r@C@D@E@F@C@G@H@I@J@A@k@K@}@L@A@M@N@}@O@k@P@",
"Q@R@S@T@U@V@V@V@V@V@V@V@V@W@R@X@Y@T@Z@T@`@V@ #.#V@V@V@W@W@+#@###R@T@$#V@%#&#V@V@S@T@&#V@V@*#T@=#V@-#",
";#>#,#,#,#,#,#,#,#,#,#,#,#,#,#,#,#,#,#,#,#,#,#,#,#,#,#,#,#,#,#,#,#,#,#,#,#,#,#,#,#,#,#,#,#,#,#,#,#'#",
"  )#!#~#~#~#~#~#~#~#~#~#~#~#~#~#~#~#~#~#~#~#~#~#~#~#~#~#~#~#~#~#~#~#~#~#~#~#~#~#~#~#~#~#~#~#~#~#{#  "};
