/* XPM */
static char * record_xpm[] = {
"24 24 59 1",
" 	c #000000",
".	c #020000",
"+	c #120000",
"@	c #150000",
"#	c #040000",
"$	c #060000",
"%	c #5E0000",
"&	c #BA0000",
"*	c #F10000",
"=	c #FF0000",
"-	c #F70000",
";	c #C50000",
">	c #700000",
",	c #0E0000",
"'	c #3B0000",
")	c #D90000",
"!	c #E90000",
"~	c #560000",
"{	c #570000",
"]	c #FA0000",
"^	c #7D0000",
"/	c #3C0000",
"(	c #620000",
"_	c #DB0000",
":	c #F20000",
"<	c #190000",
"[	c #610000",
"}	c #8B0000",
"|	c #E40000",
"1	c #010000",
"2	c #210000",
"3	c #3D0000",
"4	c #110000",
"5	c #200000",
"6	c #B80000",
"7	c #E20000",
"8	c #880000",
"9	c #050000",
"0	c #D80000",
"a	c #F00000",
"b	c #180000",
"c	c #380000",
"d	c #F90000",
"e	c #FE0000",
"f	c #5D0000",
"g	c #520000",
"h	c #F80000",
"i	c #760000",
"j	c #360000",
"k	c #D50000",
"l	c #E60000",
"m	c #4F0000",
"n	c #580000",
"o	c #B20000",
"p	c #ED0000",
"q	c #F30000",
"r	c #BE0000",
"s	c #6A0000",
"t	c #0B0000",
"                        ",
"                        ",
"          .+@#          ",
"       $%&*==-;>,       ",
"      ')========!~      ",
"     {]===========^     ",
"    /]=============(    ",
"   $_==============:<   ",
"   [================}   ",
"   &================|   ",
"  1:=================2  ",
"  +==================3  ",
"  4==================3  ",
"  1*=================5  ",
"   6================7   ",
"   %================8   ",
"   90==============ab   ",
"    cd============ef    ",
"     gh==========ei     ",
"      jk========lm      ",
"       #nop==qrst       ",
"           ,41          ",
"                        ",
"                        "};
