/* XPM */
static char * step_xpm[] = {
"33 24 18 1",
" 	c None",
".	c #000000",
"+	c #001700",
"@	c #004700",
"#	c #004000",
"$	c #003900",
"%	c #004200",
"&	c #001800",
"*	c #002400",
"=	c #007000",
"-	c #006600",
";	c #006100",
">	c #002900",
",	c #000B00",
"'	c #002100",
")	c #001E00",
"!	c #001F00",
"~	c #000E00",
"                                 ",
"                                 ",
"     .....................       ",
"     .....................       ",
"     .....................       ",
"     ....              ...       ",
"     ....              ...       ",
"     ....           .........    ",
"     ....            .......     ",
"     ....             .....      ",
"     ....              ...       ",
"     ....               .        ",
"+@@@@@@@@@@@#.   .$%%%%%%%%%%%&  ",
"*===========-.   .;===========>  ",
"*===========-.   .;===========>  ",
"*===========-.   .;===========>  ",
"*===========-.   .;===========>  ",
"*===========-.   .;===========>  ",
"*===========-.   .;===========>  ",
"*===========-.   .;===========>  ",
"*===========-.   .;===========>  ",
"*===========-.   .;===========>  ",
"*===========-.   .;===========>  ",
",''''''''''').    !***********~  "};
