/* XPM */
static char * view_icon_xpm[] = {
"16 16 19 1",
" 	c None",
".	c #000000",
"+	c #828282",
"@	c #222222",
"#	c #8E8E8E",
"$	c #4B4B4B",
"%	c #BBBBBB",
"&	c #737373",
"*	c #848484",
"=	c #050505",
"-	c #525252",
";	c #A8A8A8",
">	c #4C4C4C",
",	c #8C8C8C",
"'	c #8F8F8F",
")	c #D3D3D3",
"!	c #959595",
"~	c #818181",
"{	c #858585",
"                ",
"                ",
"                ",
"    ......+     ",
"  ....   .@.#   ",
"  ....   ...$   ",
" .. . %&% . ..  ",
"..  . *=* .   ..",
".-  . ;>; .  ,  ",
".'  . )!) .  +  ",
"  ~~ .   . ~~   ",
"    { ... {     ",
"    ~ ... ~     ",
"                ",
"                ",
"                "};
