/* XPM */
static char * view_parameters_xpm[] = {
"31 13 116 2",
"  	c None",
". 	c #010708",
"+ 	c #072E31",
"@ 	c #010505",
"# 	c #062628",
"$ 	c #25E7F9",
"% 	c #26EDFF",
"& 	c #26ECFE",
"* 	c #25E6F7",
"= 	c #25EAFB",
"- 	c #25E8F9",
"; 	c #25E8FA",
"> 	c #26EBFD",
", 	c #25E9FA",
"' 	c #25E6F8",
") 	c #041A1C",
"! 	c #0F5C63",
"~ 	c #020B0C",
"{ 	c #1CACB9",
"] 	c #000000",
"^ 	c #1AA4B0",
"/ 	c #0B444A",
"( 	c #06282B",
"_ 	c #0D535A",
": 	c #1CB1BE",
"< 	c #04181A",
"[ 	c #0C4A50",
"} 	c #083236",
"| 	c #000303",
"1 	c #24E2F3",
"2 	c #168994",
"3 	c #20C8D8",
"4 	c #1BA6B2",
"5 	c #1CADBA",
"6 	c #10676E",
"7 	c #020A0B",
"8 	c #25E4F5",
"9 	c #116A72",
"0 	c #21CCDB",
"a 	c #0D4F55",
"b 	c #041C1E",
"c 	c #010607",
"d 	c #1CB2BF",
"e 	c #0E5B61",
"f 	c #031415",
"g 	c #25E5F6",
"h 	c #116870",
"i 	c #052124",
"j 	c #0C4B51",
"k 	c #04191B",
"l 	c #168691",
"m 	c #000101",
"n 	c #23DBEB",
"o 	c #1EB9C7",
"p 	c #000001",
"q 	c #041719",
"r 	c #147F88",
"s 	c #072C2F",
"t 	c #0C4D52",
"u 	c #062426",
"v 	c #20C9D8",
"w 	c #1896A1",
"x 	c #020F10",
"y 	c #178D97",
"z 	c #1BABB8",
"A 	c #1EBECC",
"B 	c #051E20",
"C 	c #0F5B62",
"D 	c #0C4C52",
"E 	c #25E5F7",
"F 	c #15828C",
"G 	c #1897A2",
"H 	c #15838D",
"I 	c #010405",
"J 	c #23DCED",
"K 	c #25E9FB",
"L 	c #147F89",
"M 	c #0D5157",
"N 	c #178E99",
"O 	c #1EBBC9",
"P 	c #010404",
"Q 	c #168792",
"R 	c #0A3E43",
"S 	c #0A3E42",
"T 	c #041618",
"U 	c #22D2E2",
"V 	c #23DAEB",
"W 	c #0A3F44",
"X 	c #0D5158",
"Y 	c #052123",
"Z 	c #15848E",
"` 	c #1FC1CF",
" .	c #12737B",
"..	c #01090A",
"+.	c #09363A",
"@.	c #010606",
"#.	c #168892",
"$.	c #13767F",
"%.	c #031517",
"&.	c #1DB8C6",
"*.	c #093B40",
"=.	c #0F6067",
"-.	c #1FC0CF",
";.	c #1CAEBB",
">.	c #09393E",
",.	c #21D1E1",
"'.	c #0B474D",
").	c #072B2F",
"!.	c #0E565C",
"~.	c #1AA3B0",
"{.	c #24E1F2",
"].	c #083438",
"^.	c #126E76",
"/.	c #26ECFD",
"(.	c #26EDFE",
"_.	c #06272A",
". + + + + + + + + + + + + + + + + + + + + + + + + + + + + + @ ",
"# $ $ % % % & * = - $ % ; * * * * * > * , % % ; ' % % > * > ) ",
"# ! ~ ' % % { ] ^ / ( % _ ] ] ] ] ] : < [ % % } | 1 % 2 ] 3 ) ",
"# 4 ] 5 % % 6 7 8 / ( % _ ~ 9 9 9 9 0 a b % ' c ] d % e f & ) ",
"# g ~ h % % i j % / ( % _ k % % % % % l m n o p q r % s [ % ) ",
"# % t u % v ] w % / ( % _ x y y y z % A ] 5 l B C D E @ F % ) ",
"# % G ] 0 H I J % / ( % _ ] ] ] ] j % K ~ L _ M N k O ] o % ) ",
"# % J P Q R S % % / ( % _ T U U U V % % W X Y Z ` ]  ...- % ) ",
"# % % S +.@.#.% % / ( % _ k % % % % % % $.%.m &.K 7 T *.% % ) ",
"# % % #.] m U % % / ( % _ 7 =.=.=.=.-.% ;.] @.E % >.]  .% % ) ",
"# % % ,.@ } % % % '.).% !.P P P P P ~.% {.. ].% % ^.P z % % ) ",
"# % % % /.& % % % & & % & > > > > > (.% % /.& % % & > % % % ) ",
"@._._._._._._._._._._._._._._._._._._._._._._._._._._._._._.I "};
